#!OML:ASF F:\VICON\USERDATA\INSTALL\rory3\rory3.ASF
:FULLY-SPECIFIED
:DEGREES
9
root 0.22757410901011044 17.956496713231907 -25.491486453996266 5.305492426492631 6.300800122365377 -3.7126913631189202
lfemur -42.5434881225584 -1.580515124722403 -16.427608554679054
ltibia 62.47679613038261
lfoot -7.8389342029505 -9.754453354204193
ltoes -17.707891366356325
rfemur 5.863808422290781 3.2236301113898578 34.052092205706785
rtibia 35.49730924653677
rfoot 9.230417199416891 -1.7965758635996005
rtoes -13.769688406180803
lowerback 16.400994057767072 0.8755576431662804 6.027936315219696
upperback -1.7191099892734854 2.638271074446304 2.2890091246883832
thorax -10.990484652928817 0.9636197527006328 -1.5774314391174356
lowerneck -20.125597084440923 -5.337265773396333 -1.8706162741540266
upperneck 14.293504344981258 -7.028417555484199 1.6482946149992732
head 7.827684885089608 -3.276595527862244 -0.026931720209078636
lclavicle -1.952177253772531e-15 1.1013515822415597e-15
lhumerus -66.58619043167846 -5.3465434111345225 97.45549789765106
lradius 106.67701233657644
lwrist 42.56930578893219
lhand -18.075398674351735 7.524496407251958
lfingers 7.125020000000001
lthumb 8.197531324345773 37.34549635902576
rclavicle -1.952177253772531e-15 1.1013515822415597e-15
rhumerus -40.02730738626742 25.68318188079253 -105.18598868352741
rradius 120.46898198991948
rwrist -15.450501982142937
rhand -30.51169396763834 42.608893226252746
rfingers 7.125020000000001
rthumb -3.8115739572606286 12.663305913451817
10
root 0.26724581097028405 18.082694498271316 -24.435686916929765 5.436371721689162 6.556579585558014 -3.226133018940619
lfemur -40.69278897183047 -2.804041922298783 -17.201207478695654
ltibia 51.9763999154414
lfoot -7.673064310573612 -11.82370042635563
ltoes -15.777293154359665
rfemur 9.110516957121003 3.8026889009570946 33.24799334857222
rtibia 32.742310285928326
rfoot 19.26779061175823 -0.29682476605247565
rtoes -9.126662614524976
lowerback 15.294398696384416 1.2101430545916991 5.890396706071881
upperback -2.1180450922285976 2.958849575907368 2.0022614561618353
thorax -10.761786737776788 1.1163510433449977 -1.8607500665395509
lowerneck -18.245110563004108 -5.4016153179157005 -1.9379846297451313
upperneck 13.907506517580938 -7.1832368103086655 1.9726318517946284
head 7.401532676386976 -3.3472747506984106 0.1253744496816096
lclavicle -1.952177160926958e-15 1.1013516378800017e-15
lhumerus -68.4067891443876 -4.132996162656704 96.59280107121617
lradius 106.92701182863291
lwrist 42.17030682873959
lhand -17.41410258871583 6.865409475266679
lfingers 7.125020000000001
lthumb 8.835787409640181 36.66039952871114
rclavicle -1.952177160926958e-15 1.1013516378800017e-15
rhumerus -41.20650628834681 23.985184908537416 -105.24898845748076
rradius 120.92498137031508
rwrist -18.717195996651633
rhand -26.244300389614867 47.14829295279689
rfingers 7.125020000000001
rthumb 0.30980060375662394 17.16880251921841
11
root 0.3030777353550413 18.227991948082934 -23.373587382625487 5.808849715842631 6.8885788887872 -2.959073927777653
lfemur -38.56428994858291 -3.77910937018547 -17.679706813160436
ltibia 41.22820378982419
lfoot -5.720275577622336 -14.133597158003623
ltoes -14.427894404091216
rfemur 11.072786071591146 5.512365327143179 33.37189317247343
rtibia 31.98831057039353
rfoot 25.269086673029616 0.1905672907026812
rtoes -7.980613653280464
lowerback 14.013204066885542 1.532440561084495 6.129836025646934
upperback -1.6533107969777858 3.265488142530442 1.6770341005039775
thorax -9.444758744021536 1.292799068553688 -2.3598676484925525
lowerneck -21.057590404291552 -5.680503343883175 -1.670261164665626
upperneck 15.366398306167275 -7.644824588595871 2.0031615916952292
head 8.364565069363955 -3.4924431544777894 -0.06395311906535239
lclavicle -1.9521772562429042e-15 1.1013516223530344e-15
lhumerus -67.92248948682135 -3.756197016987837 95.7307042425741
lradius 107.42101082493654
lwrist 42.51070594164577
lhand -18.580995681606407 7.164198084421545
lfingers 7.125020000000001
lthumb 7.709614316955605 37.003697940398496
rclavicle -1.9521772562429042e-15 1.1013516223530344e-15
rhumerus -39.694207696407645 23.129286434713414 -104.32599176924322
rradius 120.1569824138594
rwrist -20.23129322240473
rhand -25.64470129194817 43.05459319940354
rfingers 7.125020000000001
rthumb 0.8888976990108541 13.076705602015581
12
root 0.3390666506458765 18.2979907194994 -22.35958782723101 6.040838466550489 7.757907064317986 -2.94520397497891
lfemur -36.728990790788124 -4.64567710205618 -18.10230622537529
ltibia 31.884507157929583
lfoot -1.2845784556829682 -14.79869621693218
ltoes 1.9744504050486178
rfemur 11.167186028990375 6.896452433923328 34.16629204339459
rtibia 33.94530983206694
rfoot 29.57208384891661 1.7491672743601816
rtoes -2.3094187935361834
lowerback 13.198407482343173 1.4438012468570018 6.4996249748019075
upperback -2.190774199457571 3.173708571552532 1.6611542296192305
thorax -9.55616772839883 1.2164599229349211 -2.540816771858467
lowerneck -18.97830530776214 -5.852242128277213 -2.2645366588653775
upperneck 15.320998561701018 -7.825383719529247 2.393728264246144
head 8.040270998399379 -3.599801973998037 0.19250745291520804
lclavicle -1.9521771269591532e-15 1.1013516158834443e-15
lhumerus -69.55398833323744 -2.7379593256771795 95.30380581298671
lradius 108.39600884395685
lwrist 42.345206372944325
lhand -17.90549968002308 7.29586747150753
lfingers 7.125020000000001
lthumb 8.361500318651736 37.11039744674001
rclavicle -1.9521771269591532e-15 1.1013516158834443e-15
rhumerus -41.64780587746454 22.648187292574487 -105.17198873375997
rradius 119.51598328483844
rwrist -19.23449504881601
rhand -25.62980131437106 45.7136930392178
rfingers 7.125020000000001
rthumb 0.9032486765897666 15.735903598698398
